Coordinates
version=1
nRows=14
nColumns=40
inDegrees=yes

Units are S.I. units (second, meters, Newtons, ...)
Angles are in degrees.

endheader
time	pelvis_tilt	pelvis_list	pelvis_rotation	pelvis_tx	pelvis_ty	pelvis_tz	hip_flexion_r	hip_adduction_r	hip_rotation_r	knee_angle_r	knee_angle_r_beta	ankle_angle_r	subtalar_angle_r	mtp_angle_r	hip_flexion_l	hip_adduction_l	hip_rotation_l	knee_angle_l	knee_angle_l_beta	ankle_angle_l	subtalar_angle_l	mtp_angle_l	lumbar_extension	lumbar_bending	lumbar_rotation	arm_flex_r	arm_add_r	arm_rot_r	elbow_flex_r	pro_sup_r	wrist_flex_r	wrist_dev_r	arm_flex_l	arm_add_l	arm_rot_l	elbow_flex_l	pro_sup_l	wrist_flex_l	wrist_dev_l
     47.78650000	     -6.23419808	     -3.15073617	     -2.15829806	      0.91315926	      0.91573353	      0.46091092	     31.09570024	     -1.15519787	    -12.99866146	     16.39593875	     16.39593875	      3.91137550	      3.24839969	      8.43862279	      0.47608437	     -4.22949308	    -11.53673961	     12.95831341	     12.95831341	     19.94887968	     -1.99518265	     -4.27534188	    -10.67176814	      3.87795133	      2.51912523	    -14.46357365	    -12.74314380	     -0.13307195	     28.22453156	     46.22898003	      0.00000000	      0.00000000	     30.57101148	    -24.58583370	      0.62117749	    104.39054335	     47.67354454	      0.00000000	      0.00000000
     47.79800000	     -6.09199881	     -2.96800402	     -1.94264411	      0.91551055	      0.91394172	      0.46228364	     30.51744744	     -1.21047516	    -13.41382291	     15.88605685	     15.88605685	      3.29278170	      3.49281728	      7.39714727	     -0.54805299	     -4.14889746	    -11.80899644	     12.73362513	     12.73362513	     20.79885535	     -0.97831045	     -3.61451352	    -10.57427335	      3.67272372	      2.33595760	    -16.29022296	    -12.80786869	     -0.30152346	     30.32795605	     46.12031257	      0.00000000	      0.00000000	     30.47546923	    -24.88773234	      0.86033135	    105.95208801	     47.75729738	      0.00000000	      0.00000000
     47.80950000	     -5.99776931	     -2.88644339	     -1.73970523	      0.91772089	      0.91225714	      0.46386640	     30.19933504	     -1.18071788	    -13.43252610	     16.10965673	     16.10965673	      2.88237403	      2.95962695	      6.71343931	     -1.47629746	     -4.15747309	    -11.73272785	     12.52528979	     12.52528979	     21.33648605	     -0.63668562	     -3.41230031	    -10.42190420	      3.58354985	      2.38070450	    -17.31226150	    -12.70968779	     -0.26485106	     30.35528391	     46.10464691	      0.00000000	      0.00000000	     30.52609650	    -24.68375014	      0.91684737	    106.75473273	     47.78894044	      0.00000000	      0.00000000
     47.82100000	     -5.90965834	     -2.87730097	     -1.48260425	      0.91992462	      0.91067107	      0.46561755	     29.86468227	     -1.07741267	    -13.25606659	     16.47611221	     16.47611221	      1.12379388	      1.56408463	      1.93245617	     -2.10072811	     -4.37103370	    -11.78045642	     12.94287113	     12.94287113	     22.44333321	      0.01732331	     -2.10650047	    -10.29160404	      3.58711665	      2.14919873	    -18.44068842	    -12.76473337	     -0.29392094	     31.59532102	     46.03045599	      0.00000000	      0.00000000	     30.13406389	    -24.82545081	      0.88798763	    107.64144287	     47.90870159	      0.00000000	      0.00000000
     47.83250000	     -5.83066407	     -2.96747371	     -1.26473549	      0.92196191	      0.90934997	      0.46760475	     29.82828550	     -0.91025768	    -12.81505039	     17.64490552	     17.64490552	      0.42840899	     -0.17700050	     -0.29398537	     -2.60927414	     -4.70096192	    -11.64706259	     13.48575686	     13.48575686	     23.03470086	      0.06473581	     -1.72337317	    -10.16882303	      3.66550742	      2.03933397	    -18.87452286	    -12.61924645	     -0.13512415	     31.53882846	     46.01064314	      0.00000000	      0.00000000	     29.71639388	    -24.79339447	      0.92721479	    108.34370391	     47.99471585	      0.00000000	      0.00000000
     47.84400000	     -5.74958531	     -3.05861003	     -1.04045910	      0.92386908	      0.90828135	      0.46965377	     29.97150232	     -0.83643153	    -12.48779699	     19.33988038	     19.33988038	      0.52859531	     -1.58491135	     -1.02192219	     -2.93044417	     -5.06388953	    -11.37719732	     14.33505353	     14.33505353	     23.38395686	     -0.22723200	     -1.79039744	    -10.10615704	      3.75813664	      2.04172307	    -19.14509616	    -12.47695256	     -0.07379948	     31.45185981	     46.00632562	      0.00000000	      0.00000000	     29.23015920	    -24.57368724	      0.97766040	    108.70030230	     48.01213586	      0.00000000	      0.00000000
     47.85550000	     -5.64582291	     -3.19443908	     -0.81214852	      0.92567702	      0.90753051	      0.47185930	     30.08563928	     -0.67489857	    -12.00036705	     21.08816950	     21.08816950	      0.75551339	     -3.21793478	     -1.67542839	     -3.04065876	     -5.54159427	    -11.06078138	     15.60675877	     15.60675877	     23.66640156	     -0.65550915	     -1.93926486	    -10.11660354	      3.88595907	      2.02995895	    -19.15101222	    -12.33422064	     -0.00013245	     31.41224156	     46.00181112	      0.00000000	      0.00000000	     28.56145711	    -24.39315470	      1.01183327	    108.97374069	     48.02507410	      0.00000000	      0.00000000
     47.86700000	     -5.52494770	     -3.37611818	     -0.55836210	      0.92736830	      0.90717825	      0.47415610	     30.07348958	     -0.42858278	    -11.48692177	     22.65777294	     22.65777294	      1.12627465	     -4.85530705	     -2.13007779	     -2.91560460	     -6.13391491	    -10.71766438	     17.30792419	     17.30792419	     23.79610383	     -1.21939228	     -2.22818912	    -10.16530366	      4.07874940	      2.00531430	    -18.88169435	    -12.18342824	      0.12032616	     31.37684731	     45.99646824	      0.00000000	      0.00000000	     27.66381380	    -24.18416964	      1.03177682	    109.10097323	     48.03462156	      0.00000000	      0.00000000
     47.87850000	     -5.40691460	     -3.58967670	     -0.30638198	      0.92894699	      0.90720433	      0.47658643	     29.92948349	     -0.10231808	    -11.01430444	     23.96641968	     23.96641968	      1.64697445	     -6.28137978	     -2.33683758	     -2.53869302	     -6.82356042	    -10.34202438	     19.42959174	     19.42959174	     23.69708010	     -1.91470778	     -2.73370936	    -10.25278082	      4.26155494	      1.93458844	    -18.35886419	    -12.03958281	      0.30941942	     31.30836885	     45.99020703	      0.00000000	      0.00000000	     26.58371975	    -23.92466228	      1.02711218	    109.03270896	     48.04129889	      0.00000000	      0.00000000
     47.89000000	     -5.26140384	     -3.82917408	     -0.05125500	      0.93042619	      0.90766650	      0.47904346	     29.62958491	      0.28519770	    -10.59599201	     25.04641731	     25.04641731	      2.58075241	     -7.43161138	     -1.45620723	     -2.01772783	     -7.58070336	     -9.95749160	     21.76639001	     21.76639001	     22.82187533	     -2.84537086	     -4.63601968	    -10.37642489	      4.47254643	      1.35279477	    -16.96462378	    -12.12444652	      1.72350159	     30.30078826	     45.94638899	      0.00000000	      0.00000000	     24.76800210	    -23.81682072	      0.10362870	    109.28573964	     48.17722137	      0.00000000	      0.00000000
     47.90150000	     -5.13693974	     -4.02123970	      0.21336229	      0.93174324	      0.90842477	      0.48146604	     29.20819743	      0.59739865	    -10.41328729	     25.82779730	     25.82779730	      3.55014867	     -8.08264561	     -0.75330707	     -1.23188484	     -8.27898331	     -9.32444265	     24.44698108	     24.44698108	     21.50628470	     -4.27865845	     -6.73626407	    -10.47547556	      4.64713071	      1.28737859	    -15.95641374	    -12.11939472	      2.93199567	     30.14168572	     45.88006140	      0.00000000	      0.00000000	     23.41667414	    -23.38450876	      0.08009694	    108.58104061	     48.23132097	      0.00000000	      0.00000000
     47.91300000	     -5.04092700	     -4.22320930	      0.50617567	      0.93284931	      0.90943318	      0.48382144	     28.59772616	      0.89910085	    -10.48040788	     26.14958258	     26.14958258	      4.23273746	     -8.42086257	     -0.85031982	     -0.04273271	     -9.05537273	     -8.66067228	     27.77451851	     27.77451851	     20.42839492	     -5.45675089	     -7.50960285	    -10.59037727	      4.82687590	      1.28663540	    -14.97183115	    -12.04168059	      3.08291147	     30.39300641	     45.86829233	      0.00000000	      0.00000000	     22.18213970	    -22.95359116	      0.35907680	    107.67288601	     48.19846132	      0.00000000	      0.00000000
     47.92450000	     -4.94164177	     -4.38160072	      0.78799031	      0.93380355	      0.91070793	      0.48611517	     27.91096600	      1.18098901	    -10.53747631	     26.30701372	     26.30701372	      5.08869014	     -8.62264944	     -0.22360185	      1.19607298	     -9.67990519	     -7.71128311	     30.91723662	     30.91723662	     17.55130213	     -7.87133549	    -11.23609951	    -10.67334145	      4.95580435	      1.18612158	    -13.56255956	    -12.09672465	      4.15439865	     30.08980179	     45.82485949	      0.00000000	      0.00000000	     20.78713962	    -22.23665146	      0.08783520	    105.99529760	     48.22393895	      0.00000000	      0.00000000
     47.93600000	     -4.77579082	     -4.63086768	      1.06195573	      0.93468483	      0.91215756	      0.48845563	     26.99156889	      1.54378258	    -10.85850682	     26.13778630	     26.13778630	      5.69778796	     -8.50896176	     -0.36820740	      2.74525466	    -10.53045326	     -6.95583639	     34.81662532	     34.81662532	     15.77338073	     -9.06080715	    -11.72692914	    -10.91286563	      5.18121293	      1.26797555	    -12.31512109	    -12.11133365	      4.21588469	     30.50154273	     45.81473773	      0.00000000	      0.00000000	     19.40386726	    -21.75000677	      0.55911592	    104.94646213	     48.17087734	      0.00000000	      0.00000000
